<svg xmlns="http://www.w3.org/2000/svg" xmlns:xlink="http://www.w3.org/1999/xlink" width="500" zoomAndPan="magnify" viewBox="0 0 375 374.999991" height="500" preserveAspectRatio="xMidYMid meet" version="1.0"><defs><g/><clipPath id="56b848a352"><path d="M 115.316406 17.289062 L 357.710938 17.289062 L 357.710938 259.785156 L 115.316406 259.785156 Z M 115.316406 17.289062 " clip-rule="nonzero"/></clipPath><clipPath id="1295e99281"><path d="M 17.289062 115.316406 L 259.785156 115.316406 L 259.785156 357.710938 L 17.289062 357.710938 Z M 17.289062 115.316406 " clip-rule="nonzero"/></clipPath><clipPath id="853b58ec03"><path d="M 107.382812 64.738281 L 143.382812 64.738281 L 143.382812 100.738281 L 107.382812 100.738281 Z M 107.382812 64.738281 " clip-rule="nonzero"/></clipPath><clipPath id="826a76ddb8"><path d="M 187.5 231.542969 L 223.5 231.542969 L 223.5 267.542969 L 187.5 267.542969 Z M 187.5 231.542969 " clip-rule="nonzero"/></clipPath><clipPath id="f51dc7f3d5"><path d="M 231.753906 274.945312 L 267.753906 274.945312 L 267.753906 310.945312 L 231.753906 310.945312 Z M 231.753906 274.945312 " clip-rule="nonzero"/></clipPath><clipPath id="450e14c3d3"><path d="M 151.722656 107.289062 L 187.722656 107.289062 L 187.722656 143.289062 L 151.722656 143.289062 Z M 151.722656 107.289062 " clip-rule="nonzero"/></clipPath></defs><g clip-path="url(#56b848a352)"><path fill="#6366f1" d="M 259.609375 39.628906 C 259.609375 27.3125 250.195312 17.289062 238.625 17.289062 L 136.375 17.289062 C 124.800781 17.289062 115.390625 27.3125 115.390625 39.628906 L 115.390625 78.464844 C 115.390625 84.074219 119.933594 88.617188 125.542969 88.617188 C 131.152344 88.617188 135.699219 84.074219 135.699219 78.464844 L 135.699219 39.628906 C 135.699219 38.453125 136.230469 37.765625 136.472656 37.597656 L 238.527344 37.597656 C 238.769531 37.765625 239.300781 38.453125 239.300781 39.628906 L 239.300781 125.542969 C 239.300781 131.148438 243.851562 135.695312 249.457031 135.695312 L 335.371094 135.695312 C 336.542969 135.695312 337.234375 136.230469 337.402344 136.476562 L 337.402344 238.527344 C 337.234375 238.765625 336.546875 239.300781 335.371094 239.300781 L 206.523438 239.300781 C 200.917969 239.300781 196.371094 243.847656 196.371094 249.457031 C 196.371094 255.066406 200.917969 259.609375 206.523438 259.609375 L 335.371094 259.609375 C 347.6875 259.609375 357.710938 250.195312 357.710938 238.625 L 357.710938 136.375 C 357.710938 124.804688 347.6875 115.390625 335.371094 115.390625 L 259.609375 115.390625 L 259.609375 39.628906 " fill-opacity="1" fill-rule="nonzero"/></g><g clip-path="url(#1295e99281)"><path fill="#595bbf" d="M 115.390625 335.371094 C 115.390625 347.6875 124.800781 357.710938 136.375 357.710938 L 238.625 357.710938 C 250.195312 357.710938 259.609375 347.6875 259.609375 335.371094 L 259.609375 296.535156 C 259.609375 290.925781 255.066406 286.378906 249.457031 286.378906 C 243.851562 286.378906 239.300781 290.925781 239.300781 296.535156 L 239.300781 335.371094 C 239.300781 336.546875 238.769531 337.234375 238.527344 337.398438 L 136.472656 337.398438 C 136.230469 337.234375 135.699219 336.542969 135.699219 335.371094 L 135.699219 249.457031 C 135.699219 243.847656 131.152344 239.300781 125.542969 239.300781 L 39.628906 239.300781 C 38.453125 239.300781 37.765625 238.765625 37.597656 238.527344 L 37.597656 136.476562 C 37.765625 136.230469 38.457031 135.695312 39.628906 135.695312 L 168.472656 135.695312 C 174.082031 135.695312 178.628906 131.148438 178.628906 125.542969 C 178.628906 119.9375 174.082031 115.390625 168.472656 115.390625 L 39.628906 115.390625 C 27.3125 115.390625 17.289062 124.804688 17.289062 136.375 L 17.289062 238.625 C 17.289062 250.195312 27.3125 259.609375 39.628906 259.609375 L 115.390625 259.609375 L 115.390625 335.371094 " fill-opacity="1" fill-rule="nonzero"/></g><g clip-path="url(#853b58ec03)"><path fill="#6366f1" d="M 143.160156 82.625 C 143.160156 83.210938 143.128906 83.796875 143.074219 84.378906 C 143.015625 84.960938 142.929688 85.539062 142.816406 86.117188 C 142.699219 86.691406 142.558594 87.257812 142.390625 87.816406 C 142.21875 88.378906 142.023438 88.929688 141.796875 89.472656 C 141.574219 90.011719 141.324219 90.542969 141.046875 91.058594 C 140.769531 91.574219 140.46875 92.078125 140.144531 92.5625 C 139.820312 93.050781 139.46875 93.519531 139.097656 93.972656 C 138.726562 94.425781 138.332031 94.859375 137.917969 95.273438 C 137.503906 95.6875 137.070312 96.082031 136.617188 96.453125 C 136.167969 96.824219 135.695312 97.171875 135.207031 97.5 C 134.722656 97.824219 134.21875 98.125 133.703125 98.402344 C 133.1875 98.679688 132.65625 98.929688 132.117188 99.152344 C 131.574219 99.375 131.023438 99.574219 130.464844 99.742188 C 129.902344 99.914062 129.335938 100.054688 128.761719 100.171875 C 128.1875 100.285156 127.605469 100.371094 127.023438 100.429688 C 126.441406 100.484375 125.855469 100.515625 125.269531 100.515625 C 124.683594 100.515625 124.101562 100.484375 123.515625 100.429688 C 122.933594 100.371094 122.355469 100.285156 121.78125 100.171875 C 121.207031 100.054688 120.636719 99.914062 120.078125 99.742188 C 119.515625 99.574219 118.964844 99.375 118.425781 99.152344 C 117.882812 98.929688 117.355469 98.679688 116.835938 98.402344 C 116.320312 98.125 115.820312 97.824219 115.332031 97.5 C 114.84375 97.171875 114.375 96.824219 113.921875 96.453125 C 113.46875 96.082031 113.035156 95.6875 112.621094 95.273438 C 112.207031 94.859375 111.8125 94.425781 111.441406 93.972656 C 111.070312 93.519531 110.722656 93.050781 110.398438 92.5625 C 110.070312 92.078125 109.769531 91.574219 109.492188 91.058594 C 109.21875 90.542969 108.96875 90.011719 108.742188 89.472656 C 108.519531 88.929688 108.320312 88.378906 108.152344 87.816406 C 107.980469 87.257812 107.839844 86.691406 107.726562 86.117188 C 107.609375 85.539062 107.527344 84.960938 107.46875 84.378906 C 107.410156 83.796875 107.382812 83.210938 107.382812 82.625 C 107.382812 82.039062 107.410156 81.453125 107.46875 80.871094 C 107.527344 80.289062 107.609375 79.710938 107.726562 79.136719 C 107.839844 78.5625 107.980469 77.992188 108.152344 77.433594 C 108.320312 76.871094 108.519531 76.320312 108.742188 75.78125 C 108.96875 75.238281 109.21875 74.710938 109.492188 74.191406 C 109.769531 73.675781 110.070312 73.175781 110.398438 72.6875 C 110.722656 72.199219 111.070312 71.730469 111.441406 71.277344 C 111.8125 70.824219 112.207031 70.390625 112.621094 69.976562 C 113.035156 69.5625 113.46875 69.167969 113.921875 68.796875 C 114.375 68.425781 114.84375 68.078125 115.332031 67.75 C 115.820312 67.425781 116.320312 67.125 116.835938 66.847656 C 117.355469 66.574219 117.882812 66.324219 118.425781 66.097656 C 118.964844 65.875 119.515625 65.675781 120.078125 65.507812 C 120.636719 65.335938 121.207031 65.195312 121.78125 65.082031 C 122.355469 64.964844 122.933594 64.878906 123.515625 64.824219 C 124.101562 64.765625 124.683594 64.738281 125.269531 64.738281 C 125.855469 64.738281 126.441406 64.765625 127.023438 64.824219 C 127.605469 64.878906 128.1875 64.964844 128.761719 65.082031 C 129.335938 65.195312 129.902344 65.335938 130.464844 65.507812 C 131.023438 65.675781 131.574219 65.875 132.117188 66.097656 C 132.65625 66.324219 133.1875 66.574219 133.703125 66.847656 C 134.21875 67.125 134.722656 67.425781 135.207031 67.75 C 135.695312 68.078125 136.167969 68.425781 136.617188 68.796875 C 137.070312 69.167969 137.503906 69.5625 137.917969 69.976562 C 138.332031 70.390625 138.726562 70.824219 139.097656 71.277344 C 139.46875 71.730469 139.820312 72.199219 140.144531 72.6875 C 140.46875 73.175781 140.769531 73.675781 141.046875 74.191406 C 141.324219 74.710938 141.574219 75.238281 141.796875 75.78125 C 142.023438 76.320312 142.21875 76.871094 142.390625 77.433594 C 142.558594 77.992188 142.699219 78.5625 142.816406 79.136719 C 142.929688 79.710938 143.015625 80.289062 143.074219 80.871094 C 143.128906 81.453125 143.160156 82.039062 143.160156 82.625 Z M 143.160156 82.625 " fill-opacity="1" fill-rule="nonzero"/></g><g fill="#6366f1" fill-opacity="1"><g transform="translate(81.512312, 221.541935)"><g><path d="M 12 -68.296875 L 29.21875 -68.203125 C 38.207031 -68.203125 46.113281 -64.957031 52.9375 -58.46875 C 59.757812 -51.988281 63.171875 -44.019531 63.171875 -34.5625 C 63.171875 -25.101562 59.835938 -16.992188 53.171875 -10.234375 C 46.503906 -3.472656 38.425781 -0.09375 28.9375 -0.09375 L 11.90625 -0.09375 C 8.125 -0.09375 5.769531 -0.867188 4.84375 -2.421875 C 4.09375 -3.722656 3.71875 -5.707031 3.71875 -8.375 L 3.71875 -60.109375 C 3.71875 -61.597656 3.765625 -62.679688 3.859375 -63.359375 C 3.953125 -64.046875 4.25 -64.851562 4.75 -65.78125 C 5.613281 -67.457031 8.03125 -68.296875 12 -68.296875 Z M 29.21875 -16.5625 C 33.6875 -16.5625 37.71875 -18.21875 41.3125 -21.53125 C 44.90625 -24.851562 46.703125 -29.023438 46.703125 -34.046875 C 46.703125 -39.078125 44.945312 -43.28125 41.4375 -46.65625 C 37.9375 -50.039062 33.832031 -51.734375 29.125 -51.734375 L 20.1875 -51.734375 L 20.1875 -16.5625 Z M 29.21875 -16.5625 "/></g></g></g><g fill="#6366f1" fill-opacity="1"><g transform="translate(147.005627, 221.541935)"><g><path d="M 76.203125 -65.59375 C 76.703125 -64.664062 77 -63.828125 77.09375 -63.078125 C 77.1875 -62.335938 77.234375 -61.253906 77.234375 -59.828125 L 77.234375 -8.1875 C 77.234375 -3.90625 76.050781 -1.394531 73.6875 -0.65625 C 72.507812 -0.28125 71.019531 -0.09375 69.21875 -0.09375 C 67.425781 -0.09375 66 -0.25 64.9375 -0.5625 C 63.882812 -0.875 63.078125 -1.242188 62.515625 -1.671875 C 61.960938 -2.109375 61.53125 -2.726562 61.21875 -3.53125 C 60.914062 -4.59375 60.765625 -6.207031 60.765625 -8.375 L 60.765625 -39.546875 C 59.210938 -37.617188 56.945312 -34.5625 53.96875 -30.375 C 50.988281 -26.1875 49.09375 -23.566406 48.28125 -22.515625 C 47.476562 -21.460938 46.921875 -20.734375 46.609375 -20.328125 C 46.304688 -19.921875 45.546875 -19.359375 44.328125 -18.640625 C 43.117188 -17.929688 41.816406 -17.578125 40.421875 -17.578125 C 39.023438 -17.578125 37.753906 -17.90625 36.609375 -18.5625 C 35.460938 -19.21875 34.640625 -19.851562 34.140625 -20.46875 L 33.40625 -21.5 C 32.164062 -23.039062 29.710938 -26.335938 26.046875 -31.390625 C 22.390625 -36.453125 20.40625 -39.171875 20.09375 -39.546875 L 20.09375 -8.1875 C 20.09375 -6.757812 20.046875 -5.6875 19.953125 -4.96875 C 19.859375 -4.257812 19.566406 -3.472656 19.078125 -2.609375 C 18.140625 -0.929688 15.71875 -0.09375 11.8125 -0.09375 C 8.03125 -0.09375 5.675781 -0.929688 4.75 -2.609375 C 4.25 -3.472656 3.953125 -4.273438 3.859375 -5.015625 C 3.765625 -5.765625 3.71875 -6.882812 3.71875 -8.375 L 3.71875 -60.015625 C 3.71875 -61.441406 3.765625 -62.507812 3.859375 -63.21875 C 3.953125 -63.9375 4.25 -64.757812 4.75 -65.6875 C 5.675781 -67.300781 8.09375 -68.109375 12 -68.109375 C 13.675781 -68.109375 15.117188 -67.90625 16.328125 -67.5 C 17.535156 -67.101562 18.328125 -66.6875 18.703125 -66.25 L 19.265625 -65.6875 L 40.375 -37.96875 C 50.925781 -51.925781 57.96875 -61.132812 61.5 -65.59375 C 62.550781 -67.269531 65.046875 -68.109375 68.984375 -68.109375 C 72.929688 -68.109375 75.335938 -67.269531 76.203125 -65.59375 Z M 76.203125 -65.59375 "/></g></g></g><g fill="#6366f1" fill-opacity="1"><g transform="translate(227.941963, 221.541935)"><g><path d="M 12 -68.296875 L 29.21875 -68.203125 C 38.207031 -68.203125 46.113281 -64.957031 52.9375 -58.46875 C 59.757812 -51.988281 63.171875 -44.019531 63.171875 -34.5625 C 63.171875 -25.101562 59.835938 -16.992188 53.171875 -10.234375 C 46.503906 -3.472656 38.425781 -0.09375 28.9375 -0.09375 L 11.90625 -0.09375 C 8.125 -0.09375 5.769531 -0.867188 4.84375 -2.421875 C 4.09375 -3.722656 3.71875 -5.707031 3.71875 -8.375 L 3.71875 -60.109375 C 3.71875 -61.597656 3.765625 -62.679688 3.859375 -63.359375 C 3.953125 -64.046875 4.25 -64.851562 4.75 -65.78125 C 5.613281 -67.457031 8.03125 -68.296875 12 -68.296875 Z M 29.21875 -16.5625 C 33.6875 -16.5625 37.71875 -18.21875 41.3125 -21.53125 C 44.90625 -24.851562 46.703125 -29.023438 46.703125 -34.046875 C 46.703125 -39.078125 44.945312 -43.28125 41.4375 -46.65625 C 37.9375 -50.039062 33.832031 -51.734375 29.125 -51.734375 L 20.1875 -51.734375 L 20.1875 -16.5625 Z M 29.21875 -16.5625 "/></g></g></g><g clip-path="url(#826a76ddb8)"><path fill="#6366f1" d="M 223.277344 249.429688 C 223.277344 250.015625 223.25 250.601562 223.191406 251.183594 C 223.132812 251.765625 223.046875 252.347656 222.933594 252.921875 C 222.820312 253.496094 222.675781 254.0625 222.507812 254.625 C 222.335938 255.183594 222.140625 255.734375 221.914062 256.277344 C 221.691406 256.816406 221.441406 257.347656 221.164062 257.863281 C 220.890625 258.378906 220.589844 258.882812 220.261719 259.371094 C 219.9375 259.855469 219.589844 260.328125 219.214844 260.78125 C 218.84375 261.230469 218.453125 261.664062 218.039062 262.082031 C 217.625 262.496094 217.191406 262.886719 216.738281 263.257812 C 216.285156 263.628906 215.8125 263.980469 215.328125 264.304688 C 214.839844 264.628906 214.339844 264.929688 213.820312 265.207031 C 213.304688 265.484375 212.777344 265.734375 212.234375 265.957031 C 211.691406 266.183594 211.140625 266.378906 210.582031 266.550781 C 210.019531 266.71875 209.453125 266.863281 208.878906 266.976562 C 208.304688 267.089844 207.726562 267.175781 207.140625 267.234375 C 206.558594 267.289062 205.972656 267.320312 205.386719 267.320312 C 204.804688 267.320312 204.21875 267.289062 203.636719 267.234375 C 203.050781 267.175781 202.472656 267.089844 201.898438 266.976562 C 201.324219 266.863281 200.757812 266.71875 200.195312 266.550781 C 199.636719 266.378906 199.085938 266.183594 198.542969 265.957031 C 198 265.734375 197.472656 265.484375 196.957031 265.207031 C 196.4375 264.929688 195.9375 264.628906 195.449219 264.304688 C 194.964844 263.980469 194.492188 263.628906 194.039062 263.257812 C 193.585938 262.886719 193.152344 262.496094 192.738281 262.082031 C 192.324219 261.664062 191.933594 261.230469 191.558594 260.78125 C 191.1875 260.328125 190.839844 259.855469 190.515625 259.371094 C 190.1875 258.882812 189.886719 258.378906 189.613281 257.863281 C 189.335938 257.347656 189.085938 256.816406 188.863281 256.277344 C 188.636719 255.734375 188.441406 255.183594 188.269531 254.625 C 188.101562 254.0625 187.957031 253.496094 187.84375 252.921875 C 187.730469 252.347656 187.644531 251.765625 187.585938 251.183594 C 187.527344 250.601562 187.5 250.015625 187.5 249.429688 C 187.5 248.84375 187.527344 248.261719 187.585938 247.675781 C 187.644531 247.09375 187.730469 246.515625 187.84375 245.941406 C 187.957031 245.367188 188.101562 244.796875 188.269531 244.238281 C 188.441406 243.675781 188.636719 243.125 188.863281 242.585938 C 189.085938 242.042969 189.335938 241.515625 189.613281 241 C 189.886719 240.480469 190.1875 239.980469 190.515625 239.492188 C 190.839844 239.003906 191.1875 238.535156 191.558594 238.082031 C 191.933594 237.628906 192.324219 237.195312 192.738281 236.78125 C 193.152344 236.367188 193.585938 235.972656 194.039062 235.601562 C 194.492188 235.230469 194.964844 234.882812 195.449219 234.558594 C 195.9375 234.230469 196.4375 233.929688 196.957031 233.65625 C 197.472656 233.378906 198 233.128906 198.542969 232.902344 C 199.085938 232.679688 199.636719 232.484375 200.195312 232.3125 C 200.757812 232.140625 201.324219 232 201.898438 231.886719 C 202.472656 231.773438 203.050781 231.6875 203.636719 231.628906 C 204.21875 231.570312 204.804688 231.542969 205.386719 231.542969 C 205.972656 231.542969 206.558594 231.570312 207.140625 231.628906 C 207.726562 231.6875 208.304688 231.773438 208.878906 231.886719 C 209.453125 232 210.019531 232.140625 210.582031 232.3125 C 211.140625 232.484375 211.691406 232.679688 212.234375 232.902344 C 212.777344 233.128906 213.304688 233.378906 213.820312 233.65625 C 214.339844 233.929688 214.839844 234.230469 215.328125 234.558594 C 215.8125 234.882812 216.285156 235.230469 216.738281 235.601562 C 217.191406 235.972656 217.625 236.367188 218.039062 236.78125 C 218.453125 237.195312 218.84375 237.628906 219.214844 238.082031 C 219.589844 238.535156 219.9375 239.003906 220.261719 239.492188 C 220.589844 239.980469 220.890625 240.480469 221.164062 241 C 221.441406 241.515625 221.691406 242.042969 221.914062 242.585938 C 222.140625 243.125 222.335938 243.675781 222.507812 244.238281 C 222.675781 244.796875 222.820312 245.367188 222.933594 245.941406 C 223.046875 246.515625 223.132812 247.09375 223.191406 247.675781 C 223.25 248.261719 223.277344 248.84375 223.277344 249.429688 Z M 223.277344 249.429688 " fill-opacity="1" fill-rule="nonzero"/></g><g clip-path="url(#f51dc7f3d5)"><path fill="#595bbf" d="M 267.53125 292.835938 C 267.53125 293.421875 267.503906 294.003906 267.445312 294.585938 C 267.386719 295.171875 267.300781 295.75 267.1875 296.324219 C 267.074219 296.898438 266.933594 297.464844 266.761719 298.027344 C 266.589844 298.585938 266.394531 299.140625 266.171875 299.679688 C 265.945312 300.222656 265.695312 300.75 265.417969 301.265625 C 265.144531 301.785156 264.84375 302.285156 264.515625 302.773438 C 264.191406 303.261719 263.84375 303.730469 263.472656 304.183594 C 263.101562 304.636719 262.707031 305.070312 262.292969 305.484375 C 261.878906 305.898438 261.445312 306.289062 260.992188 306.664062 C 260.539062 307.035156 260.070312 307.382812 259.582031 307.707031 C 259.09375 308.035156 258.59375 308.335938 258.074219 308.609375 C 257.558594 308.886719 257.03125 309.136719 256.488281 309.363281 C 255.949219 309.585938 255.398438 309.78125 254.835938 309.953125 C 254.273438 310.121094 253.707031 310.265625 253.132812 310.378906 C 252.558594 310.492188 251.980469 310.578125 251.398438 310.636719 C 250.8125 310.695312 250.230469 310.722656 249.644531 310.722656 C 249.058594 310.722656 248.472656 310.695312 247.890625 310.636719 C 247.308594 310.578125 246.726562 310.492188 246.152344 310.378906 C 245.578125 310.265625 245.011719 310.121094 244.449219 309.953125 C 243.890625 309.78125 243.339844 309.585938 242.796875 309.363281 C 242.257812 309.136719 241.726562 308.886719 241.210938 308.609375 C 240.695312 308.335938 240.191406 308.035156 239.703125 307.707031 C 239.21875 307.382812 238.746094 307.035156 238.292969 306.664062 C 237.84375 306.289062 237.410156 305.898438 236.992188 305.484375 C 236.578125 305.070312 236.1875 304.636719 235.816406 304.183594 C 235.445312 303.730469 235.09375 303.261719 234.769531 302.773438 C 234.445312 302.285156 234.144531 301.785156 233.867188 301.265625 C 233.589844 300.75 233.339844 300.222656 233.117188 299.679688 C 232.890625 299.140625 232.695312 298.585938 232.523438 298.027344 C 232.355469 297.464844 232.210938 296.898438 232.097656 296.324219 C 231.984375 295.75 231.898438 295.171875 231.839844 294.585938 C 231.785156 294.003906 231.753906 293.421875 231.753906 292.835938 C 231.753906 292.25 231.785156 291.664062 231.839844 291.082031 C 231.898438 290.496094 231.984375 289.917969 232.097656 289.34375 C 232.210938 288.769531 232.355469 288.203125 232.523438 287.640625 C 232.695312 287.082031 232.890625 286.53125 233.117188 285.988281 C 233.339844 285.449219 233.589844 284.917969 233.867188 284.402344 C 234.144531 283.886719 234.445312 283.382812 234.769531 282.894531 C 235.09375 282.410156 235.445312 281.9375 235.816406 281.484375 C 236.1875 281.03125 236.578125 280.597656 236.992188 280.183594 C 237.410156 279.769531 237.84375 279.378906 238.292969 279.007812 C 238.746094 278.632812 239.21875 278.285156 239.703125 277.960938 C 240.191406 277.636719 240.695312 277.335938 241.210938 277.058594 C 241.726562 276.78125 242.257812 276.53125 242.796875 276.308594 C 243.339844 276.082031 243.890625 275.886719 244.449219 275.714844 C 245.011719 275.546875 245.578125 275.402344 246.152344 275.289062 C 246.726562 275.175781 247.308594 275.089844 247.890625 275.03125 C 248.472656 274.972656 249.058594 274.945312 249.644531 274.945312 C 250.230469 274.945312 250.8125 274.972656 251.398438 275.03125 C 251.980469 275.089844 252.558594 275.175781 253.132812 275.289062 C 253.707031 275.402344 254.273438 275.546875 254.835938 275.714844 C 255.398438 275.886719 255.949219 276.082031 256.488281 276.308594 C 257.03125 276.53125 257.558594 276.78125 258.074219 277.058594 C 258.59375 277.335938 259.09375 277.636719 259.582031 277.960938 C 260.070312 278.285156 260.539062 278.632812 260.992188 279.007812 C 261.445312 279.378906 261.878906 279.769531 262.292969 280.183594 C 262.707031 280.597656 263.101562 281.03125 263.472656 281.484375 C 263.84375 281.9375 264.191406 282.410156 264.515625 282.894531 C 264.84375 283.382812 265.144531 283.886719 265.417969 284.402344 C 265.695312 284.917969 265.945312 285.449219 266.171875 285.988281 C 266.394531 286.53125 266.589844 287.082031 266.761719 287.640625 C 266.933594 288.203125 267.074219 288.769531 267.1875 289.34375 C 267.300781 289.917969 267.386719 290.496094 267.445312 291.082031 C 267.503906 291.664062 267.53125 292.25 267.53125 292.835938 Z M 267.53125 292.835938 " fill-opacity="1" fill-rule="nonzero"/></g><g clip-path="url(#450e14c3d3)"><path fill="#595bbf" d="M 187.5 125.179688 C 187.5 125.761719 187.46875 126.347656 187.410156 126.929688 C 187.355469 127.515625 187.269531 128.09375 187.15625 128.667969 C 187.039062 129.242188 186.898438 129.808594 186.726562 130.371094 C 186.558594 130.929688 186.359375 131.480469 186.136719 132.023438 C 185.914062 132.566406 185.660156 133.09375 185.386719 133.609375 C 185.109375 134.128906 184.808594 134.628906 184.484375 135.117188 C 184.15625 135.601562 183.808594 136.074219 183.4375 136.527344 C 183.066406 136.980469 182.671875 137.414062 182.257812 137.828125 C 181.84375 138.242188 181.410156 138.632812 180.957031 139.007812 C 180.503906 139.378906 180.035156 139.726562 179.546875 140.050781 C 179.0625 140.378906 178.558594 140.679688 178.042969 140.953125 C 177.523438 141.230469 176.996094 141.480469 176.457031 141.703125 C 175.914062 141.929688 175.363281 142.125 174.800781 142.296875 C 174.242188 142.464844 173.675781 142.609375 173.097656 142.722656 C 172.523438 142.835938 171.945312 142.921875 171.363281 142.980469 C 170.78125 143.039062 170.195312 143.066406 169.609375 143.066406 C 169.023438 143.066406 168.4375 143.039062 167.855469 142.980469 C 167.273438 142.921875 166.695312 142.835938 166.121094 142.722656 C 165.542969 142.609375 164.976562 142.464844 164.417969 142.296875 C 163.855469 142.125 163.304688 141.929688 162.765625 141.703125 C 162.222656 141.480469 161.695312 141.230469 161.175781 140.953125 C 160.660156 140.679688 160.15625 140.378906 159.671875 140.050781 C 159.183594 139.726562 158.714844 139.378906 158.261719 139.007812 C 157.808594 138.632812 157.375 138.242188 156.960938 137.828125 C 156.546875 137.414062 156.152344 136.980469 155.78125 136.527344 C 155.410156 136.074219 155.0625 135.601562 154.734375 135.117188 C 154.410156 134.628906 154.109375 134.128906 153.832031 133.609375 C 153.558594 133.09375 153.304688 132.566406 153.082031 132.023438 C 152.859375 131.480469 152.660156 130.929688 152.492188 130.371094 C 152.320312 129.808594 152.179688 129.242188 152.0625 128.667969 C 151.949219 128.09375 151.863281 127.515625 151.808594 126.929688 C 151.75 126.347656 151.722656 125.761719 151.722656 125.179688 C 151.722656 124.59375 151.75 124.007812 151.808594 123.425781 C 151.863281 122.839844 151.949219 122.261719 152.0625 121.6875 C 152.179688 121.113281 152.320312 120.546875 152.492188 119.984375 C 152.660156 119.425781 152.859375 118.875 153.082031 118.332031 C 153.304688 117.789062 153.558594 117.261719 153.832031 116.746094 C 154.109375 116.226562 154.410156 115.726562 154.734375 115.238281 C 155.0625 114.753906 155.410156 114.28125 155.78125 113.828125 C 156.152344 113.375 156.546875 112.941406 156.960938 112.527344 C 157.375 112.113281 157.808594 111.722656 158.261719 111.351562 C 158.714844 110.976562 159.183594 110.628906 159.671875 110.304688 C 160.15625 109.976562 160.660156 109.675781 161.175781 109.402344 C 161.695312 109.125 162.222656 108.875 162.765625 108.652344 C 163.304688 108.425781 163.855469 108.230469 164.417969 108.058594 C 164.976562 107.890625 165.542969 107.746094 166.121094 107.632812 C 166.695312 107.519531 167.273438 107.433594 167.855469 107.375 C 168.4375 107.316406 169.023438 107.289062 169.609375 107.289062 C 170.195312 107.289062 170.78125 107.316406 171.363281 107.375 C 171.945312 107.433594 172.523438 107.519531 173.097656 107.632812 C 173.675781 107.746094 174.242188 107.890625 174.800781 108.058594 C 175.363281 108.230469 175.914062 108.425781 176.457031 108.652344 C 176.996094 108.875 177.523438 109.125 178.042969 109.402344 C 178.558594 109.675781 179.0625 109.976562 179.546875 110.304688 C 180.035156 110.628906 180.503906 110.976562 180.957031 111.351562 C 181.410156 111.722656 181.84375 112.113281 182.257812 112.527344 C 182.671875 112.941406 183.066406 113.375 183.4375 113.828125 C 183.808594 114.28125 184.15625 114.753906 184.484375 115.238281 C 184.808594 115.726562 185.109375 116.226562 185.386719 116.746094 C 185.660156 117.261719 185.914062 117.789062 186.136719 118.332031 C 186.359375 118.875 186.558594 119.425781 186.726562 119.984375 C 186.898438 120.546875 187.039062 121.113281 187.15625 121.6875 C 187.269531 122.261719 187.355469 122.839844 187.410156 123.425781 C 187.46875 124.007812 187.5 124.59375 187.5 125.179688 Z M 187.5 125.179688 " fill-opacity="1" fill-rule="nonzero"/></g></svg>